<svg xmlns="http://www.w3.org/2000/svg" xmlns:xlink="http://www.w3.org/1999/xlink" width="860" height="601.04"><rect width="860" height="601.04" rx="5" ry="5" class="a"/><svg y="0%" x="0%"><circle cx="20" cy="20" r="6" fill="#ff5f58"/><circle cx="40" cy="20" r="6" fill="#ffbd2e"/><circle cx="60" cy="20" r="6" fill="#18c132"/></svg><svg height="521.04" viewBox="0 0 80 52.104" width="800" x="25" xmlns="http://www.w3.org/2000/svg" xmlns:xlink="http://www.w3.org/1999/xlink" y="60"><style>@keyframes i{0%{transform:translateX(0)}.08%{transform:translateX(-80px)}3.07%{transform:translateX(-160px)}9.05%{transform:translateX(-240px)}12.04%{transform:translateX(-320px)}13.54%{transform:translateX(-400px)}20.59%{transform:translateX(-480px)}20.6%{transform:translateX(-560px)}20.62%{transform:translateX(-640px)}20.71%{transform:translateX(-720px)}20.76%{transform:translateX(-800px)}20.82%{transform:translateX(-880px)}21.07%{transform:translateX(-960px)}21.2%{transform:translateX(-1040px)}22.27%{transform:translateX(-1120px)}28.29%{transform:translateX(-1200px)}29.79%{transform:translateX(-1280px)}34.86%{transform:translateX(-1360px)}39.41%{transform:translateX(-1440px)}44.64%{transform:translateX(-1520px)}49.21%{transform:translateX(-1600px)}54.52%{transform:translateX(-1680px)}59.09%{transform:translateX(-1760px)}60.59%{transform:translateX(-1840px)}66.04%{transform:translateX(-1920px)}72.07%{transform:translateX(-2000px)}73.57%{transform:translateX(-2080px)}78.59%{transform:translateX(-2160px)}84.61%{transform:translateX(-2240px)}86.11%{transform:translateX(-2320px)}91.04%{transform:translateX(-2560px)}91.05%{transform:translateX(-2640px)}to{transform:translateX(-2720px)}}.a{fill:#282d35}.f{fill:#b9c0cb;white-space:pre}</style><g font-family="Monaco,Consolas,Menlo,'Bitstream Vera Sans Mono','Powerline Symbols',monospace" font-size="1.67"><defs><symbol id="1"><text y="1.67" class="f">#</text><text x="2.004" y="1.67" class="f">Install</text><text x="10.02" y="1.67" class="f">T9</text><text x="13.026" y="1.67" class="f">OS</text></symbol><symbol id="2"><text y="1.67" class="f">$</text><text x="2.004" y="1.67" class="f">pip</text><text x="6.012" y="1.67" class="f">install</text><text x="14.028" y="1.67" class="f">git+https://github.com/HanbeenMoon/t9os.git</text></symbol><symbol id="3"><text y="1.67" class="f">Successfully</text><text x="13.026" y="1.67" class="f">installed</text><text x="23.046" y="1.67" class="f">t9os-0.3.0</text></symbol><symbol id="4"><text y="1.67" class="f">#</text><text x="2.004" y="1.67" class="f">Initialize</text></symbol><symbol id="5"><text y="1.67" class="f">$</text><text x="2.004" y="1.67" class="f">t9</text><text x="5.01" y="1.67" class="f">init</text><text x="10.02" y="1.67" class="f">--quick</text></symbol><symbol id="6"><text x="2.004" y="1.67" class="f">===</text><text x="6.012" y="1.67" class="f">T9</text><text x="9.018" y="1.67" class="f">OS</text><text x="12.024" y="1.67" class="f">v0.3.0</text><text x="19.038" y="1.67" class="f">--</text><text x="22.044" y="1.67" class="f">Initialization</text><text x="37.074" y="1.67" class="f">===</text></symbol><symbol id="7"><text x="2.004" y="1.67" class="f">Config:</text><text x="10.02" y="1.67" class="f">/tmp/t9_demo_config</text></symbol><symbol id="8"><text x="2.004" y="1.67" class="f">Data:</text><text x="10.02" y="1.67" class="f">/tmp/t9_demo_data</text></symbol><symbol id="9"><text x="2.004" y="1.67" class="f">Template:</text><text x="12.024" y="1.67" class="f">constitution/L1_execution.md</text></symbol><symbol id="10"><text x="2.004" y="1.67" class="f">Template:</text><text x="12.024" y="1.67" class="f">constitution/L2_interpretation.md</text></symbol><symbol id="11"><text x="2.004" y="1.67" class="f">Template:</text><text x="12.024" y="1.67" class="f">constitution/L3_amendment.md</text></symbol><symbol id="12"><text x="2.004" y="1.67" class="f">Template:</text><text x="12.024" y="1.67" class="f">telos/MISSION.md</text></symbol><symbol id="13"><text x="2.004" y="1.67" class="f">Config:</text><text x="11.022" y="1.67" class="f">config.toml</text></symbol><symbol id="14"><text x="2.004" y="1.67" class="f">DB:</text><text x="10.02" y="1.67" class="f">/tmp/t9_demo_data/.t9.db</text><text x="35.07" y="1.67" class="f">(0</text><text x="38.076" y="1.67" class="f">entities)</text></symbol><symbol id="15"><text x="2.004" y="1.67" class="f">T9</text><text x="5.01" y="1.67" class="f">OS</text><text x="8.016" y="1.67" class="f">initialized.</text><text x="21.042" y="1.67" class="f">Run</text><text x="25.05" y="1.67" class="f">&apos;t9</text><text x="29.058" y="1.67" class="f">daily&apos;</text><text x="36.072" y="1.67" class="f">for</text><text x="40.08" y="1.67" class="f">your</text><text x="45.09" y="1.67" class="f">daily</text><text x="51.102" y="1.67" class="f">brief.</text></symbol><symbol id="16"><text y="1.67" class="f">#</text><text x="2.004" y="1.67" class="f">Capture</text><text x="10.02" y="1.67" class="f">some</text><text x="15.03" y="1.67" class="f">ideas</text></symbol><symbol id="17"><text y="1.67" class="f">$</text><text x="2.004" y="1.67" class="f">t9</text><text x="5.01" y="1.67" class="f">capture</text><text x="13.026" y="1.67" class="f">&quot;embedding</text><text x="24.048" y="1.67" class="f">models</text><text x="31.062" y="1.67" class="f">might</text><text x="37.074" y="1.67" class="f">be</text><text x="40.08" y="1.67" class="f">the</text><text x="44.088" y="1.67" class="f">key</text><text x="48.096" y="1.67" class="f">to</text><text x="51.102" y="1.67" class="f">private</text><text x="59.118" y="1.67" class="f">data</text><text x="64.128" y="1.67" class="f">AI&quot;</text></symbol><symbol id="18"><text x="2.004" y="1.67" class="f">Saved:</text><text x="9.018" y="1.67" class="f">20260326_embedding</text><text x="28.056" y="1.67" class="f">models</text><text x="35.07" y="1.67" class="f">might</text><text x="41.082" y="1.67" class="f">be</text><text x="44.088" y="1.67" class="f">the_132915.md</text></symbol><symbol id="19"><text y="1.67" class="f">$</text><text x="2.004" y="1.67" class="f">t9</text><text x="5.01" y="1.67" class="f">capture</text><text x="13.026" y="1.67" class="f">&quot;build</text><text x="20.04" y="1.67" class="f">an</text><text x="23.046" y="1.67" class="f">AR</text><text x="26.052" y="1.67" class="f">fitting</text><text x="34.068" y="1.67" class="f">system</text><text x="41.082" y="1.67" class="f">for</text><text x="45.09" y="1.67" class="f">fashion</text><text x="53.106" y="1.67" class="f">e-commerce&quot;</text></symbol><symbol id="20"><text x="2.004" y="1.67" class="f">Saved:</text><text x="9.018" y="1.67" class="f">20260326_build</text><text x="24.048" y="1.67" class="f">an</text><text x="27.054" y="1.67" class="f">AR</text><text x="30.06" y="1.67" class="f">fitting</text><text x="38.076" y="1.67" class="f">system</text><text x="45.09" y="1.67" class="f">for_132918.md</text></symbol><symbol id="21"><text x="2.004" y="1.67" class="f">Concepts:</text><text x="12.024" y="1.67" class="f">create</text></symbol><symbol id="22"><text y="1.67" class="f">$</text><text x="2.004" y="1.67" class="f">t9</text><text x="5.01" y="1.67" class="f">capture</text><text x="13.026" y="1.67" class="f">&quot;tension:</text><text x="23.046" y="1.67" class="f">deadline</text><text x="32.064" y="1.67" class="f">is</text><text x="35.07" y="1.67" class="f">friday</text><text x="42.084" y="1.67" class="f">but</text><text x="46.092" y="1.67" class="f">the</text><text x="50.1" y="1.67" class="f">prototype</text><text x="60.12" y="1.67" class="f">needs</text><text x="66.132" y="1.67" class="f">another</text><text x="74.148" y="1.67" class="f">week&quot;</text></symbol><symbol id="23"><text x="2.004" y="1.67" class="f">Saved:</text><text x="9.018" y="1.67" class="f">20260326_tension</text><text x="26.052" y="1.67" class="f">deadline</text><text x="35.07" y="1.67" class="f">is</text><text x="38.076" y="1.67" class="f">friday</text><text x="45.09" y="1.67" class="f">bu_132922.md</text></symbol><symbol id="24"><text y="1.67" class="f">#</text><text x="2.004" y="1.67" class="f">Check</text><text x="8.016" y="1.67" class="f">system</text><text x="15.03" y="1.67" class="f">status</text></symbol><symbol id="25"><text y="1.67" class="f">$</text><text x="2.004" y="1.67" class="f">t9</text><text x="5.01" y="1.67" class="f">status</text></symbol><symbol id="26"><text x="2.004" y="1.67" class="f">===</text><text x="6.012" y="1.67" class="f">T9</text><text x="9.018" y="1.67" class="f">OS</text><text x="12.024" y="1.67" class="f">Seed</text><text x="17.034" y="1.67" class="f">v0.3</text><text x="22.044" y="1.67" class="f">(total</text><text x="29.058" y="1.67" class="f">3</text><text x="31.062" y="1.67" class="f">items)</text><text x="38.076" y="1.67" class="f">===</text></symbol><symbol id="27"><text x="2.004" y="1.67" class="f">preindividual</text><text x="26.052" y="1.67" class="f">3</text><text x="29.058" y="1.67" class="f">###</text></symbol><symbol id="28"><text y="1.67" class="f">#</text><text x="2.004" y="1.67" class="f">Search</text><text x="9.018" y="1.67" class="f">across</text><text x="16.032" y="1.67" class="f">all</text><text x="20.04" y="1.67" class="f">entities</text></symbol><symbol id="29"><text y="1.67" class="f">$</text><text x="2.004" y="1.67" class="f">t9</text><text x="5.01" y="1.67" class="f">search</text><text x="12.024" y="1.67" class="f">&quot;embedding&quot;</text></symbol><symbol id="30"><text x="2.004" y="1.67" class="f">[</text><text x="5.01" y="1.67" class="f">1]</text><text x="8.016" y="1.67" class="f">preindividua</text><text x="21.042" y="1.67" class="f">|</text><text x="23.046" y="1.67" class="f">20260326_embedding</text><text x="42.084" y="1.67" class="f">models</text><text x="49.098" y="1.67" class="f">might</text><text x="55.11" y="1.67" class="f">be</text><text x="58.116" y="1.67" class="f">the_132915.md</text><text x="74.148" y="1.67" class="f">|</text></symbol><symbol id="31"><text y="1.67" class="f">#</text><text x="2.004" y="1.67" class="f">Daily</text><text x="8.016" y="1.67" class="f">briefing</text></symbol><symbol id="32"><text y="1.67" class="f">$</text><text x="2.004" y="1.67" class="f">t9</text><text x="5.01" y="1.67" class="f">daily</text></symbol><symbol id="33"><text x="2.004" y="1.67" class="f">===</text><text x="6.012" y="1.67" class="f">T9</text><text x="9.018" y="1.67" class="f">OS</text><text x="12.024" y="1.67" class="f">Seed</text><text x="17.034" y="1.67" class="f">v0.3</text><text x="22.044" y="1.67" class="f">--</text><text x="25.05" y="1.67" class="f">2026-03-26</text><text x="36.072" y="1.67" class="f">Thursday</text><text x="45.09" y="1.67" class="f">===</text></symbol><symbol id="34"><text x="2.004" y="1.67" class="f">[Deadlines]</text><text x="14.028" y="1.67" class="f">No</text><text x="17.034" y="1.67" class="f">file</text><text x="22.044" y="1.67" class="f">found</text><text x="28.056" y="1.67" class="f">or</text><text x="31.062" y="1.67" class="f">no</text><text x="34.068" y="1.67" class="f">imminent</text><text x="43.086" y="1.67" class="f">deadlines</text></symbol><symbol id="35"><text x="2.004" y="1.67" class="f">Preindividual:</text><text x="17.034" y="1.67" class="f">3</text><text x="19.038" y="1.67" class="f">|</text><text x="21.042" y="1.67" class="f">Impulse:</text><text x="30.06" y="1.67" class="f">0</text><text x="32.064" y="1.67" class="f">|</text><text x="34.068" y="1.67" class="f">Tension:</text><text x="43.086" y="1.67" class="f">0</text><text x="45.09" y="1.67" class="f">|</text><text x="47.094" y="1.67" class="f">Individuating:</text><text x="62.124" y="1.67" class="f">0</text><text x="64.128" y="1.67" class="f">|</text><text x="66.132" y="1.67" class="f">Stabilized:</text><text x="78.156" y="1.67" class="f">0</text></symbol><symbol id="a"><path fill="transparent" d="M0 0h80v25H0z"/></symbol><symbol id="b"><path fill="#6f7683" d="M0 0h1.102v2.171H0z"/></symbol></defs><path class="a" d="M0 0h80v52.104H0z"/><g style="animation-duration:33.503068999999996s;animation-iteration-count:infinite;animation-name:i;animation-timing-function:steps(1,end)"><svg width="2800"><svg><use xlink:href="#a"/><use xlink:href="#b" x="-.004"/></svg><svg x="80"><use xlink:href="#a"/><use xlink:href="#b" x="-.004" y="2.146"/><use xlink:href="#1"/></svg><svg x="160"><use xlink:href="#a"/><use xlink:href="#b" x="-.004" y="4.317"/><use xlink:href="#1"/><use xlink:href="#2" y="2.171"/></svg><svg x="240"><use xlink:href="#a"/><use xlink:href="#b" x="-.004" y="6.488"/><use xlink:href="#1"/><use xlink:href="#2" y="2.171"/><use xlink:href="#3" y="4.342"/></svg><svg x="320"><use xlink:href="#a"/><use xlink:href="#b" x="-.004" y="10.83"/><use xlink:href="#1"/><use xlink:href="#2" y="2.171"/><use xlink:href="#3" y="4.342"/><use xlink:href="#4" y="8.684"/></svg><svg x="400"><use xlink:href="#a"/><use xlink:href="#b" x="-.004" y="13.001"/><use xlink:href="#1"/><use xlink:href="#2" y="2.171"/><use xlink:href="#3" y="4.342"/><use xlink:href="#4" y="8.684"/><use xlink:href="#5" y="10.855"/></svg><svg x="480"><use xlink:href="#a"/><use xlink:href="#b" x="-.004" y="19.514"/><use xlink:href="#1"/><use xlink:href="#2" y="2.171"/><use xlink:href="#3" y="4.342"/><use xlink:href="#4" y="8.684"/><use xlink:href="#5" y="10.855"/><use xlink:href="#6" y="15.197"/></svg><svg x="560"><use xlink:href="#a"/><use xlink:href="#b" x="-.004" y="21.685"/><use xlink:href="#1"/><use xlink:href="#2" y="2.171"/><use xlink:href="#3" y="4.342"/><use xlink:href="#4" y="8.684"/><use xlink:href="#5" y="10.855"/><use xlink:href="#6" y="15.197"/><use xlink:href="#7" y="19.539"/></svg><svg x="640"><use xlink:href="#a"/><use xlink:href="#b" x="-.004" y="23.856"/><use xlink:href="#1"/><use xlink:href="#2" y="2.171"/><use xlink:href="#3" y="4.342"/><use xlink:href="#4" y="8.684"/><use xlink:href="#5" y="10.855"/><use xlink:href="#6" y="15.197"/><use xlink:href="#7" y="19.539"/><use xlink:href="#8" y="21.71"/></svg><svg x="720"><use xlink:href="#a"/><use xlink:href="#b" x="-.004" y="26.027"/><use xlink:href="#1"/><use xlink:href="#2" y="2.171"/><use xlink:href="#3" y="4.342"/><use xlink:href="#4" y="8.684"/><use xlink:href="#5" y="10.855"/><use xlink:href="#6" y="15.197"/><use xlink:href="#7" y="19.539"/><use xlink:href="#8" y="21.71"/><use xlink:href="#9" y="23.881"/></svg><svg x="800"><use xlink:href="#a"/><use xlink:href="#b" x="-.004" y="28.198"/><use xlink:href="#1"/><use xlink:href="#2" y="2.171"/><use xlink:href="#3" y="4.342"/><use xlink:href="#4" y="8.684"/><use xlink:href="#5" y="10.855"/><use xlink:href="#6" y="15.197"/><use xlink:href="#7" y="19.539"/><use xlink:href="#8" y="21.71"/><use xlink:href="#9" y="23.881"/><use xlink:href="#10" y="26.052"/></svg><svg x="880"><use xlink:href="#a"/><use xlink:href="#b" x="-.004" y="30.369"/><use xlink:href="#1"/><use xlink:href="#2" y="2.171"/><use xlink:href="#3" y="4.342"/><use xlink:href="#4" y="8.684"/><use xlink:href="#5" y="10.855"/><use xlink:href="#6" y="15.197"/><use xlink:href="#7" y="19.539"/><use xlink:href="#8" y="21.71"/><use xlink:href="#9" y="23.881"/><use xlink:href="#10" y="26.052"/><use xlink:href="#11" y="28.223"/></svg><svg x="960"><use xlink:href="#a"/><use xlink:href="#b" x="-.004" y="32.54"/><use xlink:href="#1"/><use xlink:href="#2" y="2.171"/><use xlink:href="#3" y="4.342"/><use xlink:href="#4" y="8.684"/><use xlink:href="#5" y="10.855"/><use xlink:href="#6" y="15.197"/><use xlink:href="#7" y="19.539"/><use xlink:href="#8" y="21.71"/><use xlink:href="#9" y="23.881"/><use xlink:href="#10" y="26.052"/><use xlink:href="#11" y="28.223"/><use xlink:href="#12" y="30.394"/></svg><svg x="1040"><use xlink:href="#a"/><use xlink:href="#b" x="-.004" y="34.711"/><use xlink:href="#1"/><use xlink:href="#2" y="2.171"/><use xlink:href="#3" y="4.342"/><use xlink:href="#4" y="8.684"/><use xlink:href="#5" y="10.855"/><use xlink:href="#6" y="15.197"/><use xlink:href="#7" y="19.539"/><use xlink:href="#8" y="21.71"/><use xlink:href="#9" y="23.881"/><use xlink:href="#10" y="26.052"/><use xlink:href="#11" y="28.223"/><use xlink:href="#12" y="30.394"/><use xlink:href="#13" y="32.565"/></svg><svg x="1120"><use xlink:href="#a"/><use xlink:href="#b" x="-.004" y="43.395"/><use xlink:href="#1"/><use xlink:href="#2" y="2.171"/><use xlink:href="#3" y="4.342"/><use xlink:href="#4" y="8.684"/><use xlink:href="#5" y="10.855"/><use xlink:href="#6" y="15.197"/><use xlink:href="#7" y="19.539"/><use xlink:href="#8" y="21.71"/><use xlink:href="#9" y="23.881"/><use xlink:href="#10" y="26.052"/><use xlink:href="#11" y="28.223"/><use xlink:href="#12" y="30.394"/><use xlink:href="#13" y="32.565"/><use xlink:href="#14" y="34.736"/><use xlink:href="#15" y="39.078"/></svg><svg x="1200"><use xlink:href="#a"/><use xlink:href="#b" x="-.004" y="47.737"/><use xlink:href="#1"/><use xlink:href="#2" y="2.171"/><use xlink:href="#3" y="4.342"/><use xlink:href="#4" y="8.684"/><use xlink:href="#5" y="10.855"/><use xlink:href="#6" y="15.197"/><use xlink:href="#7" y="19.539"/><use xlink:href="#8" y="21.71"/><use xlink:href="#9" y="23.881"/><use xlink:href="#10" y="26.052"/><use xlink:href="#11" y="28.223"/><use xlink:href="#12" y="30.394"/><use xlink:href="#13" y="32.565"/><use xlink:href="#14" y="34.736"/><use xlink:href="#15" y="39.078"/><use xlink:href="#16" y="45.591"/></svg><svg x="1280"><use xlink:href="#a"/><use xlink:href="#b" x="-.004" y="49.908"/><use xlink:href="#1"/><use xlink:href="#2" y="2.171"/><use xlink:href="#3" y="4.342"/><use xlink:href="#4" y="8.684"/><use xlink:href="#5" y="10.855"/><use xlink:href="#6" y="15.197"/><use xlink:href="#7" y="19.539"/><use xlink:href="#8" y="21.71"/><use xlink:href="#9" y="23.881"/><use xlink:href="#10" y="26.052"/><use xlink:href="#11" y="28.223"/><use xlink:href="#12" y="30.394"/><use xlink:href="#13" y="32.565"/><use xlink:href="#14" y="34.736"/><use xlink:href="#15" y="39.078"/><use xlink:href="#16" y="45.591"/><use xlink:href="#17" y="47.762"/></svg><svg x="1360"><use xlink:href="#a"/><use xlink:href="#b" x="-.004" y="52.079"/><use xlink:href="#1"/><use xlink:href="#2" y="2.171"/><use xlink:href="#3" y="4.342"/><use xlink:href="#4" y="8.684"/><use xlink:href="#5" y="10.855"/><use xlink:href="#6" y="15.197"/><use xlink:href="#7" y="19.539"/><use xlink:href="#8" y="21.71"/><use xlink:href="#9" y="23.881"/><use xlink:href="#10" y="26.052"/><use xlink:href="#11" y="28.223"/><use xlink:href="#12" y="30.394"/><use xlink:href="#13" y="32.565"/><use xlink:href="#14" y="34.736"/><use xlink:href="#15" y="39.078"/><use xlink:href="#16" y="45.591"/><use xlink:href="#17" y="47.762"/><use xlink:href="#18" y="49.933"/></svg><svg x="1440"><use xlink:href="#a"/><use xlink:href="#b" x="-.004" y="52.079"/><use xlink:href="#3"/><use xlink:href="#4" y="4.342"/><use xlink:href="#5" y="6.513"/><use xlink:href="#6" y="10.855"/><use xlink:href="#7" y="15.197"/><use xlink:href="#8" y="17.368"/><use xlink:href="#9" y="19.539"/><use xlink:href="#10" y="21.71"/><use xlink:href="#11" y="23.881"/><use xlink:href="#12" y="26.052"/><use xlink:href="#13" y="28.223"/><use xlink:href="#14" y="30.394"/><use xlink:href="#15" y="34.736"/><use xlink:href="#16" y="41.249"/><use xlink:href="#17" y="43.42"/><use xlink:href="#18" y="45.591"/><use xlink:href="#19" y="49.933"/></svg><svg x="1520"><use xlink:href="#a"/><use xlink:href="#b" x="-.004" y="52.079"/><use xlink:href="#4"/><use xlink:href="#5" y="2.171"/><use xlink:href="#6" y="6.513"/><use xlink:href="#7" y="10.855"/><use xlink:href="#8" y="13.026"/><use xlink:href="#9" y="15.197"/><use xlink:href="#10" y="17.368"/><use xlink:href="#11" y="19.539"/><use xlink:href="#12" y="21.71"/><use xlink:href="#13" y="23.881"/><use xlink:href="#14" y="26.052"/><use xlink:href="#15" y="30.394"/><use xlink:href="#16" y="36.907"/><use xlink:href="#17" y="39.078"/><use xlink:href="#18" y="41.249"/><use xlink:href="#19" y="45.591"/><use xlink:href="#20" y="47.762"/><use xlink:href="#21" y="49.933"/></svg><svg x="1600"><use xlink:href="#a"/><use xlink:href="#b" x="-.004" y="52.079"/><use xlink:href="#6" y="2.171"/><use xlink:href="#7" y="6.513"/><use xlink:href="#8" y="8.684"/><use xlink:href="#9" y="10.855"/><use xlink:href="#10" y="13.026"/><use xlink:href="#11" y="15.197"/><use xlink:href="#12" y="17.368"/><use xlink:href="#13" y="19.539"/><use xlink:href="#14" y="21.71"/><use xlink:href="#15" y="26.052"/><use xlink:href="#16" y="32.565"/><use xlink:href="#17" y="34.736"/><use xlink:href="#18" y="36.907"/><use xlink:href="#19" y="41.249"/><use xlink:href="#20" y="43.42"/><use xlink:href="#21" y="45.591"/><use xlink:href="#22" y="49.933"/></svg><svg x="1680"><use xlink:href="#a"/><use xlink:href="#b" x="-.004" y="52.079"/><use xlink:href="#6"/><use xlink:href="#7" y="4.342"/><use xlink:href="#8" y="6.513"/><use xlink:href="#9" y="8.684"/><use xlink:href="#10" y="10.855"/><use xlink:href="#11" y="13.026"/><use xlink:href="#12" y="15.197"/><use xlink:href="#13" y="17.368"/><use xlink:href="#14" y="19.539"/><use xlink:href="#15" y="23.881"/><use xlink:href="#16" y="30.394"/><use xlink:href="#17" y="32.565"/><use xlink:href="#18" y="34.736"/><use xlink:href="#19" y="39.078"/><use xlink:href="#20" y="41.249"/><use xlink:href="#21" y="43.42"/><use xlink:href="#22" y="47.762"/><use xlink:href="#23" y="49.933"/></svg><svg x="1760"><use xlink:href="#a"/><use xlink:href="#b" x="-.004" y="52.079"/><use xlink:href="#7"/><use xlink:href="#8" y="2.171"/><use xlink:href="#9" y="4.342"/><use xlink:href="#10" y="6.513"/><use xlink:href="#11" y="8.684"/><use xlink:href="#12" y="10.855"/><use xlink:href="#13" y="13.026"/><use xlink:href="#14" y="15.197"/><use xlink:href="#15" y="19.539"/><use xlink:href="#16" y="26.052"/><use xlink:href="#17" y="28.223"/><use xlink:href="#18" y="30.394"/><use xlink:href="#19" y="34.736"/><use xlink:href="#20" y="36.907"/><use xlink:href="#21" y="39.078"/><use xlink:href="#22" y="43.42"/><use xlink:href="#23" y="45.591"/><use xlink:href="#24" y="49.933"/></svg><svg x="1840"><use xlink:href="#a"/><use xlink:href="#b" x="-.004" y="52.079"/><use xlink:href="#8"/><use xlink:href="#9" y="2.171"/><use xlink:href="#10" y="4.342"/><use xlink:href="#11" y="6.513"/><use xlink:href="#12" y="8.684"/><use xlink:href="#13" y="10.855"/><use xlink:href="#14" y="13.026"/><use xlink:href="#15" y="17.368"/><use xlink:href="#16" y="23.881"/><use xlink:href="#17" y="26.052"/><use xlink:href="#18" y="28.223"/><use xlink:href="#19" y="32.565"/><use xlink:href="#20" y="34.736"/><use xlink:href="#21" y="36.907"/><use xlink:href="#22" y="41.249"/><use xlink:href="#23" y="43.42"/><use xlink:href="#24" y="47.762"/><use xlink:href="#25" y="49.933"/></svg><svg x="1920"><use xlink:href="#a"/><use xlink:href="#b" x="-.004" y="52.079"/><use xlink:href="#12"/><use xlink:href="#13" y="2.171"/><use xlink:href="#14" y="4.342"/><use xlink:href="#15" y="8.684"/><use xlink:href="#16" y="15.197"/><use xlink:href="#17" y="17.368"/><use xlink:href="#18" y="19.539"/><use xlink:href="#19" y="23.881"/><use xlink:href="#20" y="26.052"/><use xlink:href="#21" y="28.223"/><use xlink:href="#22" y="32.565"/><use xlink:href="#23" y="34.736"/><use xlink:href="#24" y="39.078"/><use xlink:href="#25" y="41.249"/><use xlink:href="#26" y="45.591"/><use xlink:href="#27" y="49.933"/></svg><svg x="2000"><use xlink:href="#a"/><use xlink:href="#b" x="-.004" y="52.079"/><use xlink:href="#14"/><use xlink:href="#15" y="4.342"/><use xlink:href="#16" y="10.855"/><use xlink:href="#17" y="13.026"/><use xlink:href="#18" y="15.197"/><use xlink:href="#19" y="19.539"/><use xlink:href="#20" y="21.71"/><use xlink:href="#21" y="23.881"/><use xlink:href="#22" y="28.223"/><use xlink:href="#23" y="30.394"/><use xlink:href="#24" y="34.736"/><use xlink:href="#25" y="36.907"/><use xlink:href="#26" y="41.249"/><use xlink:href="#27" y="45.591"/><use xlink:href="#28" y="49.933"/></svg><svg x="2080"><use xlink:href="#a"/><use xlink:href="#b" x="-.004" y="52.079"/><use xlink:href="#15" y="2.171"/><use xlink:href="#16" y="8.684"/><use xlink:href="#17" y="10.855"/><use xlink:href="#18" y="13.026"/><use xlink:href="#19" y="17.368"/><use xlink:href="#20" y="19.539"/><use xlink:href="#21" y="21.71"/><use xlink:href="#22" y="26.052"/><use xlink:href="#23" y="28.223"/><use xlink:href="#24" y="32.565"/><use xlink:href="#25" y="34.736"/><use xlink:href="#26" y="39.078"/><use xlink:href="#27" y="43.42"/><use xlink:href="#28" y="47.762"/><use xlink:href="#29" y="49.933"/></svg><svg x="2160"><use xlink:href="#a"/><use xlink:href="#b" x="-.004" y="52.079"/><use xlink:href="#15"/><use xlink:href="#16" y="6.513"/><use xlink:href="#17" y="8.684"/><use xlink:href="#18" y="10.855"/><use xlink:href="#19" y="15.197"/><use xlink:href="#20" y="17.368"/><use xlink:href="#21" y="19.539"/><use xlink:href="#22" y="23.881"/><use xlink:href="#23" y="26.052"/><use xlink:href="#24" y="30.394"/><use xlink:href="#25" y="32.565"/><use xlink:href="#26" y="36.907"/><use xlink:href="#27" y="41.249"/><use xlink:href="#28" y="45.591"/><use xlink:href="#29" y="47.762"/><use xlink:href="#30" y="49.933"/></svg><svg x="2240"><use xlink:href="#a"/><use xlink:href="#b" x="-.004" y="52.079"/><use xlink:href="#16" y="2.171"/><use xlink:href="#17" y="4.342"/><use xlink:href="#18" y="6.513"/><use xlink:href="#19" y="10.855"/><use xlink:href="#20" y="13.026"/><use xlink:href="#21" y="15.197"/><use xlink:href="#22" y="19.539"/><use xlink:href="#23" y="21.71"/><use xlink:href="#24" y="26.052"/><use xlink:href="#25" y="28.223"/><use xlink:href="#26" y="32.565"/><use xlink:href="#27" y="36.907"/><use xlink:href="#28" y="41.249"/><use xlink:href="#29" y="43.42"/><use xlink:href="#30" y="45.591"/><use xlink:href="#31" y="49.933"/></svg><svg x="2320"><use xlink:href="#a"/><use xlink:href="#b" x="-.004" y="52.079"/><use xlink:href="#16"/><use xlink:href="#17" y="2.171"/><use xlink:href="#18" y="4.342"/><use xlink:href="#19" y="8.684"/><use xlink:href="#20" y="10.855"/><use xlink:href="#21" y="13.026"/><use xlink:href="#22" y="17.368"/><use xlink:href="#23" y="19.539"/><use xlink:href="#24" y="23.881"/><use xlink:href="#25" y="26.052"/><use xlink:href="#26" y="30.394"/><use xlink:href="#27" y="34.736"/><use xlink:href="#28" y="39.078"/><use xlink:href="#29" y="41.249"/><use xlink:href="#30" y="43.42"/><use xlink:href="#31" y="47.762"/><use xlink:href="#32" y="49.933"/></svg><svg x="2400"><use xlink:href="#a"/><use xlink:href="#b" x="-.004" y="52.079"/><use xlink:href="#19" y="2.171"/><use xlink:href="#20" y="4.342"/><use xlink:href="#21" y="6.513"/><use xlink:href="#22" y="10.855"/><use xlink:href="#23" y="13.026"/><use xlink:href="#24" y="17.368"/><use xlink:href="#25" y="19.539"/><use xlink:href="#26" y="23.881"/><use xlink:href="#27" y="28.223"/><use xlink:href="#28" y="32.565"/><use xlink:href="#29" y="34.736"/><use xlink:href="#30" y="36.907"/><use xlink:href="#31" y="41.249"/><use xlink:href="#32" y="43.42"/><use xlink:href="#33" y="47.762"/></svg><svg x="2480"><use xlink:href="#a"/><use xlink:href="#b" x="-.004" y="52.079"/><use xlink:href="#20"/><use xlink:href="#21" y="2.171"/><use xlink:href="#22" y="6.513"/><use xlink:href="#23" y="8.684"/><use xlink:href="#24" y="13.026"/><use xlink:href="#25" y="15.197"/><use xlink:href="#26" y="19.539"/><use xlink:href="#27" y="23.881"/><use xlink:href="#28" y="28.223"/><use xlink:href="#29" y="30.394"/><use xlink:href="#30" y="32.565"/><use xlink:href="#31" y="36.907"/><use xlink:href="#32" y="39.078"/><use xlink:href="#33" y="43.42"/><use xlink:href="#34" y="47.762"/></svg><svg x="2560"><use xlink:href="#a"/><use xlink:href="#b" x="-.004" y="52.079"/><use xlink:href="#21"/><use xlink:href="#22" y="4.342"/><use xlink:href="#23" y="6.513"/><use xlink:href="#24" y="10.855"/><use xlink:href="#25" y="13.026"/><use xlink:href="#26" y="17.368"/><use xlink:href="#27" y="21.71"/><use xlink:href="#28" y="26.052"/><use xlink:href="#29" y="28.223"/><use xlink:href="#30" y="30.394"/><use xlink:href="#31" y="34.736"/><use xlink:href="#32" y="36.907"/><use xlink:href="#33" y="41.249"/><use xlink:href="#34" y="45.591"/><use xlink:href="#35" y="49.933"/></svg><svg x="2640"><use xlink:href="#a"/><use xlink:href="#b" x="-.004" y="52.079"/><use xlink:href="#22" y="2.171"/><use xlink:href="#23" y="4.342"/><use xlink:href="#24" y="8.684"/><use xlink:href="#25" y="10.855"/><use xlink:href="#26" y="15.197"/><use xlink:href="#27" y="19.539"/><use xlink:href="#28" y="23.881"/><use xlink:href="#29" y="26.052"/><use xlink:href="#30" y="28.223"/><use xlink:href="#31" y="32.565"/><use xlink:href="#32" y="34.736"/><use xlink:href="#33" y="39.078"/><use xlink:href="#34" y="43.42"/><use xlink:href="#35" y="47.762"/></svg><svg x="2720"><use xlink:href="#a"/><use xlink:href="#b" x="-.004" y="52.079"/><use xlink:href="#23"/><use xlink:href="#24" y="4.342"/><use xlink:href="#25" y="6.513"/><use xlink:href="#26" y="10.855"/><use xlink:href="#27" y="15.197"/><use xlink:href="#28" y="19.539"/><use xlink:href="#29" y="21.71"/><use xlink:href="#30" y="23.881"/><use xlink:href="#31" y="28.223"/><use xlink:href="#32" y="30.394"/><use xlink:href="#33" y="34.736"/><use xlink:href="#34" y="39.078"/><use xlink:href="#35" y="43.42"/><text y="51.603" class="f">#</text><text x="2.004" y="51.603" class="f">T9</text><text x="5.01" y="51.603" class="f">OS</text><text x="8.016" y="51.603" class="f">—</text><text x="10.02" y="51.603" class="f">ideas</text><text x="16.032" y="51.603" class="f">are</text><text x="20.04" y="51.603" class="f">living</text><text x="27.054" y="51.603" class="f">things.</text></svg></svg></g></g></svg></svg>